STARTFONT 2.1
FONT -FontForge-DejaVu Sans Mono-Bold-R-Normal-SansMono--16-150-75-75-M-100-ISO10646-1
SIZE 15 75 75
FONTBOUNDINGBOX 14 20 -1 -4
COMMENT "Generated by fontforge, http://fontforge.sourceforge.net"
COMMENT "Copyright (c) 2003 by Bitstream, Inc. All Rights Reserved."
COMMENT "DejaVu changes are in public domain"
STARTPROPERTIES 40
FOUNDRY "FontForge"
FAMILY_NAME "DejaVu Sans Mono"
WEIGHT_NAME "Bold"
SLANT "R"
SETWIDTH_NAME "Normal"
ADD_STYLE_NAME "SansMono"
PIXEL_SIZE 16
POINT_SIZE 150
RESOLUTION_X 75
RESOLUTION_Y 75
SPACING "M"
AVERAGE_WIDTH 100
CHARSET_REGISTRY "ISO10646"
CHARSET_ENCODING "1"
FONTNAME_REGISTRY ""
CHARSET_COLLECTIONS "ASCII ISOLatin1Encoding ISO8859-2 ISO8859-5 ISO8859-7 ISO8859-9 ISO8859-6 ISO8859-4 ISO10646-1"
FONT_NAME "DejaVuSansMono-Bold"
FACE_NAME "DejaVu Sans Mono Bold"
COPYRIGHT "Copyright (c) 2003 by Bitstream, Inc. All Rights Reserved."
FONT_VERSION "2.37"
FONT_ASCENT 12
FONT_DESCENT 4
UNDERLINE_POSITION -1
UNDERLINE_THICKNESS 1
X_HEIGHT 8
CAP_HEIGHT 11
RAW_ASCENT 759
RAW_DESCENT 240
NORM_SPACE 10
RELATIVE_WEIGHT 70
RELATIVE_SETWIDTH 50
SUPERSCRIPT_X 0
SUPERSCRIPT_Y 7
SUPERSCRIPT_SIZE 11
SUBSCRIPT_X 0
SUBSCRIPT_Y 2
SUBSCRIPT_SIZE 11
FIGURE_WIDTH 10
AVG_LOWERCASE_WIDTH 100
AVG_UPPERCASE_WIDTH 100
ENDPROPERTIES
CHARS 366
STARTCHAR space
ENCODING 32
SWIDTH 602 0
DWIDTH 10 0
BBX 1 1 0 0
BITMAP
00
ENDCHAR
STARTCHAR exclam
ENCODING 33
SWIDTH 602 0
DWIDTH 10 0
BBX 2 12 4 0
BITMAP
C0
C0
C0
C0
C0
C0
C0
C0
00
00
C0
C0
ENDCHAR
STARTCHAR quotedbl
ENCODING 34
SWIDTH 602 0
DWIDTH 10 0
BBX 6 4 2 8
BITMAP
CC
CC
CC
CC
ENDCHAR
STARTCHAR numbersign
ENCODING 35
SWIDTH 602 0
DWIDTH 10 0
BBX 10 12 0 0
BITMAP
0D80
0980
1980
7FC0
7FC0
1300
3300
FF80
FF80
2600
6600
6400
ENDCHAR
STARTCHAR dollar
ENCODING 36
SWIDTH 602 0
DWIDTH 10 0
BBX 7 14 1 -2
BITMAP
10
10
7C
FC
D0
F0
7C
1E
16
96
FE
7C
10
10
ENDCHAR
STARTCHAR percent
ENCODING 37
SWIDTH 602 0
DWIDTH 10 0
BBX 9 12 0 0
BITMAP
7000
8800
8800
8800
7180
0600
3800
C700
0880
0880
0880
0700
ENDCHAR
STARTCHAR ampersand
ENCODING 38
SWIDTH 602 0
DWIDTH 10 0
BBX 9 12 1 0
BITMAP
3C00
7E00
6200
6000
3000
7800
5D80
CD80
C780
E700
7F00
3F80
ENDCHAR
STARTCHAR quotesingle
ENCODING 39
SWIDTH 602 0
DWIDTH 10 0
BBX 2 4 4 8
BITMAP
C0
C0
C0
C0
ENDCHAR
STARTCHAR parenleft
ENCODING 40
SWIDTH 602 0
DWIDTH 10 0
BBX 4 14 3 -2
BITMAP
30
60
60
60
C0
C0
C0
C0
C0
C0
60
60
60
30
ENDCHAR
STARTCHAR parenright
ENCODING 41
SWIDTH 602 0
DWIDTH 10 0
BBX 4 14 2 -2
BITMAP
C0
60
60
60
30
30
30
30
30
30
60
60
60
C0
ENDCHAR
STARTCHAR asterisk
ENCODING 42
SWIDTH 602 0
DWIDTH 10 0
BBX 7 8 1 4
BITMAP
10
10
D6
7C
7C
D6
10
10
ENDCHAR
STARTCHAR plus
ENCODING 43
SWIDTH 602 0
DWIDTH 10 0
BBX 8 8 1 1
BITMAP
18
18
18
FF
FF
18
18
18
ENDCHAR
STARTCHAR comma
ENCODING 44
SWIDTH 602 0
DWIDTH 10 0
BBX 3 5 3 -2
BITMAP
60
60
60
60
C0
ENDCHAR
STARTCHAR hyphen
ENCODING 45
SWIDTH 602 0
DWIDTH 10 0
BBX 5 2 2 3
BITMAP
F8
F8
ENDCHAR
STARTCHAR period
ENCODING 46
SWIDTH 602 0
DWIDTH 10 0
BBX 2 3 4 0
BITMAP
C0
C0
C0
ENDCHAR
STARTCHAR slash
ENCODING 47
SWIDTH 602 0
DWIDTH 10 0
BBX 8 13 1 -1
BITMAP
03
06
06
0C
0C
18
18
18
30
30
60
60
C0
ENDCHAR
STARTCHAR zero
ENCODING 48
SWIDTH 602 0
DWIDTH 10 0
BBX 8 12 1 0
BITMAP
3C
7E
67
C3
C3
DB
DB
C3
C3
67
7E
3C
ENDCHAR
STARTCHAR one
ENCODING 49
SWIDTH 602 0
DWIDTH 10 0
BBX 8 12 1 0
BITMAP
38
78
58
18
18
18
18
18
18
18
FF
FF
ENDCHAR
STARTCHAR two
ENCODING 50
SWIDTH 602 0
DWIDTH 10 0
BBX 8 12 1 0
BITMAP
7C
FE
83
03
03
06
0C
18
30
60
FF
FF
ENDCHAR
STARTCHAR three
ENCODING 51
SWIDTH 602 0
DWIDTH 10 0
BBX 8 12 1 0
BITMAP
7C
FE
83
03
03
3E
3E
07
03
83
FF
7C
ENDCHAR
STARTCHAR four
ENCODING 52
SWIDTH 602 0
DWIDTH 10 0
BBX 8 12 1 0
BITMAP
0E
0E
1E
36
26
66
C6
FF
FF
06
06
06
ENDCHAR
STARTCHAR five
ENCODING 53
SWIDTH 602 0
DWIDTH 10 0
BBX 8 12 1 0
BITMAP
FE
FE
C0
C0
FC
FE
87
03
03
87
FE
7C
ENDCHAR
STARTCHAR six
ENCODING 54
SWIDTH 602 0
DWIDTH 10 0
BBX 8 12 1 0
BITMAP
3C
7E
62
C0
DC
FE
E7
C3
C3
E7
7E
3C
ENDCHAR
STARTCHAR seven
ENCODING 55
SWIDTH 602 0
DWIDTH 10 0
BBX 8 12 1 0
BITMAP
FF
FF
07
06
0E
0C
0C
18
18
30
30
60
ENDCHAR
STARTCHAR eight
ENCODING 56
SWIDTH 602 0
DWIDTH 10 0
BBX 8 12 1 0
BITMAP
3C
7E
C3
C3
C3
7E
7E
C3
C3
C3
FF
3C
ENDCHAR
STARTCHAR nine
ENCODING 57
SWIDTH 602 0
DWIDTH 10 0
BBX 8 12 1 0
BITMAP
3C
7E
E7
C3
C3
E7
7F
3B
03
46
7E
3C
ENDCHAR
STARTCHAR colon
ENCODING 58
SWIDTH 602 0
DWIDTH 10 0
BBX 2 8 4 0
BITMAP
C0
C0
C0
00
00
C0
C0
C0
ENDCHAR
STARTCHAR semicolon
ENCODING 59
SWIDTH 602 0
DWIDTH 10 0
BBX 3 10 3 -2
BITMAP
60
60
60
00
00
60
60
60
60
C0
ENDCHAR
STARTCHAR less
ENCODING 60
SWIDTH 602 0
DWIDTH 10 0
BBX 8 8 1 1
BITMAP
01
0F
3C
E0
E0
3C
0F
01
ENDCHAR
STARTCHAR equal
ENCODING 61
SWIDTH 602 0
DWIDTH 10 0
BBX 8 6 1 2
BITMAP
FF
FF
00
00
FF
FF
ENDCHAR
STARTCHAR greater
ENCODING 62
SWIDTH 602 0
DWIDTH 10 0
BBX 8 8 1 1
BITMAP
80
F0
3C
07
07
3C
F0
80
ENDCHAR
STARTCHAR question
ENCODING 63
SWIDTH 602 0
DWIDTH 10 0
BBX 7 12 1 0
BITMAP
7C
FE
86
06
0C
1C
30
30
30
00
30
30
ENDCHAR
STARTCHAR at
ENCODING 64
SWIDTH 602 0
DWIDTH 10 0
BBX 9 13 0 -2
BITMAP
1E00
3F00
7380
E180
CF80
DF80
D980
DF80
CF80
6000
7100
3F80
1F00
ENDCHAR
STARTCHAR A
ENCODING 65
SWIDTH 602 0
DWIDTH 10 0
BBX 8 12 1 0
BITMAP
18
3C
3C
3C
3C
66
66
7E
7E
66
E7
C3
ENDCHAR
STARTCHAR B
ENCODING 66
SWIDTH 602 0
DWIDTH 10 0
BBX 8 12 1 0
BITMAP
FE
FF
C3
C3
C3
FE
FE
C3
C3
C3
FF
FE
ENDCHAR
STARTCHAR C
ENCODING 67
SWIDTH 602 0
DWIDTH 10 0
BBX 8 12 1 0
BITMAP
1E
7F
61
C0
C0
C0
C0
C0
C0
61
7F
1E
ENDCHAR
STARTCHAR D
ENCODING 68
SWIDTH 602 0
DWIDTH 10 0
BBX 8 12 1 0
BITMAP
F8
FE
C6
C3
C3
C3
C3
C3
C3
C6
FE
F8
ENDCHAR
STARTCHAR E
ENCODING 69
SWIDTH 602 0
DWIDTH 10 0
BBX 8 12 1 0
BITMAP
FF
FF
C0
C0
C0
FE
FE
C0
C0
C0
FF
FF
ENDCHAR
STARTCHAR F
ENCODING 70
SWIDTH 602 0
DWIDTH 10 0
BBX 8 12 1 0
BITMAP
FF
FF
C0
C0
C0
FE
FE
C0
C0
C0
C0
C0
ENDCHAR
STARTCHAR G
ENCODING 71
SWIDTH 602 0
DWIDTH 10 0
BBX 8 12 1 0
BITMAP
1E
7F
61
C0
C0
C0
CF
CF
C3
63
7F
1E
ENDCHAR
STARTCHAR H
ENCODING 72
SWIDTH 602 0
DWIDTH 10 0
BBX 8 12 1 0
BITMAP
C3
C3
C3
C3
C3
FF
FF
C3
C3
C3
C3
C3
ENDCHAR
STARTCHAR I
ENCODING 73
SWIDTH 602 0
DWIDTH 10 0
BBX 6 12 2 0
BITMAP
FC
FC
30
30
30
30
30
30
30
30
FC
FC
ENDCHAR
STARTCHAR J
ENCODING 74
SWIDTH 602 0
DWIDTH 10 0
BBX 8 12 1 0
BITMAP
1F
1F
03
03
03
03
03
03
03
83
FF
7C
ENDCHAR
STARTCHAR K
ENCODING 75
SWIDTH 602 0
DWIDTH 10 0
BBX 8 12 1 0
BITMAP
C7
CE
CC
D8
F8
F8
F8
CC
CE
C6
C7
C3
ENDCHAR
STARTCHAR L
ENCODING 76
SWIDTH 602 0
DWIDTH 10 0
BBX 8 12 1 0
BITMAP
C0
C0
C0
C0
C0
C0
C0
C0
C0
C0
FF
FF
ENDCHAR
STARTCHAR M
ENCODING 77
SWIDTH 602 0
DWIDTH 10 0
BBX 8 12 1 0
BITMAP
E7
E7
E7
FF
FF
DB
DB
DB
C3
C3
C3
C3
ENDCHAR
STARTCHAR N
ENCODING 78
SWIDTH 602 0
DWIDTH 10 0
BBX 8 12 1 0
BITMAP
E3
E3
E3
F3
D3
DB
DB
CB
CF
C7
C7
C7
ENDCHAR
STARTCHAR O
ENCODING 79
SWIDTH 602 0
DWIDTH 10 0
BBX 8 12 1 0
BITMAP
3C
7E
66
C3
C3
C3
C3
C3
C3
66
7E
3C
ENDCHAR
STARTCHAR P
ENCODING 80
SWIDTH 602 0
DWIDTH 10 0
BBX 8 12 1 0
BITMAP
FC
FF
C3
C3
C3
FF
FC
C0
C0
C0
C0
C0
ENDCHAR
STARTCHAR Q
ENCODING 81
SWIDTH 602 0
DWIDTH 10 0
BBX 8 14 1 -2
BITMAP
3C
7E
66
C3
C3
C3
C3
C3
C3
67
7E
3C
06
02
ENDCHAR
STARTCHAR R
ENCODING 82
SWIDTH 602 0
DWIDTH 10 0
BBX 9 12 1 0
BITMAP
FC00
FF00
C300
C300
C300
FE00
FE00
CE00
C700
C300
C300
C380
ENDCHAR
STARTCHAR S
ENCODING 83
SWIDTH 602 0
DWIDTH 10 0
BBX 8 12 1 0
BITMAP
3C
7E
C2
C0
E0
7C
3E
07
03
83
FF
7C
ENDCHAR
STARTCHAR T
ENCODING 84
SWIDTH 602 0
DWIDTH 10 0
BBX 8 12 1 0
BITMAP
FF
FF
18
18
18
18
18
18
18
18
18
18
ENDCHAR
STARTCHAR U
ENCODING 85
SWIDTH 602 0
DWIDTH 10 0
BBX 8 12 1 0
BITMAP
C3
C3
C3
C3
C3
C3
C3
C3
C3
E7
7E
3C
ENDCHAR
STARTCHAR V
ENCODING 86
SWIDTH 602 0
DWIDTH 10 0
BBX 8 12 1 0
BITMAP
C3
E7
66
66
66
66
66
3C
3C
3C
3C
3C
ENDCHAR
STARTCHAR W
ENCODING 87
SWIDTH 602 0
DWIDTH 10 0
BBX 10 12 0 0
BITMAP
C0C0
C0C0
C0C0
CCC0
6D80
6D80
6D80
6D80
7380
7380
7380
7380
ENDCHAR
STARTCHAR X
ENCODING 88
SWIDTH 602 0
DWIDTH 10 0
BBX 8 12 1 0
BITMAP
E7
66
7E
3C
3C
18
18
3C
3C
66
66
E7
ENDCHAR
STARTCHAR Y
ENCODING 89
SWIDTH 602 0
DWIDTH 10 0
BBX 10 12 0 0
BITMAP
E1C0
6180
7380
3300
3F00
1E00
0C00
0C00
0C00
0C00
0C00
0C00
ENDCHAR
STARTCHAR Z
ENCODING 90
SWIDTH 602 0
DWIDTH 10 0
BBX 8 12 1 0
BITMAP
FF
FF
07
0E
0C
1C
38
30
70
E0
FF
FF
ENDCHAR
STARTCHAR bracketleft
ENCODING 91
SWIDTH 602 0
DWIDTH 10 0
BBX 4 14 3 -2
BITMAP
F0
C0
C0
C0
C0
C0
C0
C0
C0
C0
C0
C0
C0
F0
ENDCHAR
STARTCHAR backslash
ENCODING 92
SWIDTH 602 0
DWIDTH 10 0
BBX 8 13 1 -1
BITMAP
C0
40
60
20
30
10
18
08
0C
04
06
02
03
ENDCHAR
STARTCHAR bracketright
ENCODING 93
SWIDTH 602 0
DWIDTH 10 0
BBX 4 14 2 -2
BITMAP
F0
30
30
30
30
30
30
30
30
30
30
30
30
F0
ENDCHAR
STARTCHAR asciicircum
ENCODING 94
SWIDTH 602 0
DWIDTH 10 0
BBX 9 4 0 8
BITMAP
1C00
3E00
7700
E380
ENDCHAR
STARTCHAR underscore
ENCODING 95
SWIDTH 602 0
DWIDTH 10 0
BBX 10 1 0 -4
BITMAP
FFC0
ENDCHAR
STARTCHAR grave
ENCODING 96
SWIDTH 602 0
DWIDTH 10 0
BBX 4 3 2 10
BITMAP
C0
60
30
ENDCHAR
STARTCHAR a
ENCODING 97
SWIDTH 602 0
DWIDTH 10 0
BBX 8 9 1 0
BITMAP
3E
7F
43
1F
7F
E3
C7
FF
7B
ENDCHAR
STARTCHAR b
ENCODING 98
SWIDTH 602 0
DWIDTH 10 0
BBX 8 12 1 0
BITMAP
C0
C0
C0
DC
FE
E7
C3
C3
C3
E7
FE
DC
ENDCHAR
STARTCHAR c
ENCODING 99
SWIDTH 602 0
DWIDTH 10 0
BBX 8 9 1 0
BITMAP
3E
7F
E1
C0
C0
C0
E1
7F
3E
ENDCHAR
STARTCHAR d
ENCODING 100
SWIDTH 602 0
DWIDTH 10 0
BBX 8 12 1 0
BITMAP
03
03
03
3B
7F
E7
C3
C3
C3
E7
7F
3B
ENDCHAR
STARTCHAR e
ENCODING 101
SWIDTH 602 0
DWIDTH 10 0
BBX 8 9 1 0
BITMAP
3C
7E
C3
FF
FF
C0
E1
7F
3E
ENDCHAR
STARTCHAR f
ENCODING 102
SWIDTH 602 0
DWIDTH 10 0
BBX 7 12 1 0
BITMAP
1E
3E
30
FE
FE
30
30
30
30
30
30
30
ENDCHAR
STARTCHAR g
ENCODING 103
SWIDTH 602 0
DWIDTH 10 0
BBX 8 12 1 -3
BITMAP
3B
7F
E7
C3
C3
C3
E7
7F
3B
43
7F
3E
ENDCHAR
STARTCHAR h
ENCODING 104
SWIDTH 602 0
DWIDTH 10 0
BBX 8 12 1 0
BITMAP
C0
C0
C0
DE
FF
E3
C3
C3
C3
C3
C3
C3
ENDCHAR
STARTCHAR i
ENCODING 105
SWIDTH 602 0
DWIDTH 10 0
BBX 8 13 1 0
BITMAP
18
18
18
00
78
78
18
18
18
18
18
FF
FF
ENDCHAR
STARTCHAR j
ENCODING 106
SWIDTH 602 0
DWIDTH 10 0
BBX 5 16 1 -3
BITMAP
18
18
18
00
78
78
18
18
18
18
18
18
18
18
F8
F0
ENDCHAR
STARTCHAR k
ENCODING 107
SWIDTH 602 0
DWIDTH 10 0
BBX 8 12 1 0
BITMAP
C0
C0
C0
CE
DC
D8
F0
F8
DC
CC
C6
C7
ENDCHAR
STARTCHAR l
ENCODING 108
SWIDTH 602 0
DWIDTH 10 0
BBX 7 12 1 0
BITMAP
F0
F0
30
30
30
30
30
30
30
30
3E
1E
ENDCHAR
STARTCHAR m
ENCODING 109
SWIDTH 602 0
DWIDTH 10 0
BBX 8 9 1 0
BITMAP
F6
FF
DB
DB
DB
DB
DB
DB
DB
ENDCHAR
STARTCHAR n
ENCODING 110
SWIDTH 602 0
DWIDTH 10 0
BBX 8 9 1 0
BITMAP
DE
FF
E3
C3
C3
C3
C3
C3
C3
ENDCHAR
STARTCHAR o
ENCODING 111
SWIDTH 602 0
DWIDTH 10 0
BBX 8 9 1 0
BITMAP
3C
7E
E7
C3
C3
C3
E7
7E
3C
ENDCHAR
STARTCHAR p
ENCODING 112
SWIDTH 602 0
DWIDTH 10 0
BBX 8 12 1 -3
BITMAP
DC
FE
E7
C3
C3
C3
E7
FE
DC
C0
C0
C0
ENDCHAR
STARTCHAR q
ENCODING 113
SWIDTH 602 0
DWIDTH 10 0
BBX 8 12 1 -3
BITMAP
3B
7F
E7
C3
C3
C3
E7
7F
3B
03
03
03
ENDCHAR
STARTCHAR r
ENCODING 114
SWIDTH 602 0
DWIDTH 10 0
BBX 7 9 2 0
BITMAP
DE
FE
E0
C0
C0
C0
C0
C0
C0
ENDCHAR
STARTCHAR s
ENCODING 115
SWIDTH 602 0
DWIDTH 10 0
BBX 8 9 1 0
BITMAP
7E
FF
C1
FC
7E
07
83
FF
7E
ENDCHAR
STARTCHAR t
ENCODING 116
SWIDTH 602 0
DWIDTH 10 0
BBX 7 11 1 0
BITMAP
30
30
FE
FE
30
30
30
30
30
3E
1E
ENDCHAR
STARTCHAR u
ENCODING 117
SWIDTH 602 0
DWIDTH 10 0
BBX 8 9 1 0
BITMAP
C3
C3
C3
C3
C3
C3
C7
FF
7B
ENDCHAR
STARTCHAR v
ENCODING 118
SWIDTH 602 0
DWIDTH 10 0
BBX 8 9 1 0
BITMAP
C3
E7
66
66
66
3C
3C
3C
18
ENDCHAR
STARTCHAR w
ENCODING 119
SWIDTH 602 0
DWIDTH 10 0
BBX 10 9 0 0
BITMAP
C0C0
C0C0
CCC0
4C80
6D80
7F80
7380
3300
3300
ENDCHAR
STARTCHAR x
ENCODING 120
SWIDTH 602 0
DWIDTH 10 0
BBX 8 9 1 0
BITMAP
E7
66
3C
3C
18
3C
3C
66
E7
ENDCHAR
STARTCHAR y
ENCODING 121
SWIDTH 602 0
DWIDTH 10 0
BBX 8 12 1 -3
BITMAP
E7
67
66
76
3E
3C
1C
1C
18
18
70
70
ENDCHAR
STARTCHAR z
ENCODING 122
SWIDTH 602 0
DWIDTH 10 0
BBX 8 9 1 0
BITMAP
FF
FF
06
0C
18
30
60
FF
FF
ENDCHAR
STARTCHAR braceleft
ENCODING 123
SWIDTH 602 0
DWIDTH 10 0
BBX 6 15 2 -3
BITMAP
1C
30
30
30
30
30
30
C0
30
30
30
30
30
30
1C
ENDCHAR
STARTCHAR bar
ENCODING 124
SWIDTH 602 0
DWIDTH 10 0
BBX 2 16 4 -4
BITMAP
C0
C0
C0
C0
C0
C0
C0
C0
C0
C0
C0
C0
C0
C0
C0
C0
ENDCHAR
STARTCHAR braceright
ENCODING 125
SWIDTH 602 0
DWIDTH 10 0
BBX 6 15 2 -3
BITMAP
E0
30
30
30
30
30
30
0C
30
30
30
30
30
30
E0
ENDCHAR
STARTCHAR asciitilde
ENCODING 126
SWIDTH 602 0
DWIDTH 10 0
BBX 8 3 1 4
BITMAP
71
FF
8E
ENDCHAR
STARTCHAR questiondown
ENCODING 191
SWIDTH 602 0
DWIDTH 10 0
BBX 6 12 2 -3
BITMAP
30
30
00
30
30
30
70
60
C0
C4
FC
78
ENDCHAR
STARTCHAR Agrave
ENCODING 192
SWIDTH 602 0
DWIDTH 10 0
BBX 8 15 1 0
BITMAP
30
18
00
18
3C
3C
3C
3C
66
66
7E
7E
66
E7
C3
ENDCHAR
STARTCHAR Aacute
ENCODING 193
SWIDTH 602 0
DWIDTH 10 0
BBX 8 15 1 0
BITMAP
0C
18
00
18
3C
3C
3C
3C
66
66
7E
7E
66
E7
C3
ENDCHAR
STARTCHAR Acircumflex
ENCODING 194
SWIDTH 602 0
DWIDTH 10 0
BBX 8 15 1 0
BITMAP
3C
66
00
18
3C
3C
3C
3C
66
66
7E
7E
66
E7
C3
ENDCHAR
STARTCHAR Atilde
ENCODING 195
SWIDTH 602 0
DWIDTH 10 0
BBX 8 15 1 0
BITMAP
34
2C
00
18
3C
3C
3C
3C
66
66
7E
7E
66
E7
C3
ENDCHAR
STARTCHAR Adieresis
ENCODING 196
SWIDTH 602 0
DWIDTH 10 0
BBX 8 15 1 0
BITMAP
66
66
00
18
3C
3C
3C
3C
66
66
7E
7E
66
E7
C3
ENDCHAR
STARTCHAR Aring
ENCODING 197
SWIDTH 602 0
DWIDTH 10 0
BBX 8 15 1 0
BITMAP
18
24
24
18
3C
3C
3C
3C
66
66
7E
7E
66
E7
C3
ENDCHAR
STARTCHAR AE
ENCODING 198
SWIDTH 602 0
DWIDTH 10 0
BBX 9 12 0 0
BITMAP
1F80
1F80
3600
3600
3600
2780
6780
7E00
7E00
6600
C780
C780
ENDCHAR
STARTCHAR Ccedilla
ENCODING 199
SWIDTH 602 0
DWIDTH 10 0
BBX 8 15 1 -3
BITMAP
1E
7F
61
C0
C0
C0
C0
C0
C0
61
7F
1E
08
04
1C
ENDCHAR
STARTCHAR Egrave
ENCODING 200
SWIDTH 602 0
DWIDTH 10 0
BBX 8 15 1 0
BITMAP
30
18
00
FF
FF
C0
C0
C0
FE
FE
C0
C0
C0
FF
FF
ENDCHAR
STARTCHAR Eacute
ENCODING 201
SWIDTH 602 0
DWIDTH 10 0
BBX 8 15 1 0
BITMAP
0E
08
00
FF
FF
C0
C0
C0
FE
FE
C0
C0
C0
FF
FF
ENDCHAR
STARTCHAR Ecircumflex
ENCODING 202
SWIDTH 602 0
DWIDTH 10 0
BBX 8 15 1 0
BITMAP
1C
26
00
FF
FF
C0
C0
C0
FE
FE
C0
C0
C0
FF
FF
ENDCHAR
STARTCHAR Edieresis
ENCODING 203
SWIDTH 602 0
DWIDTH 10 0
BBX 8 15 1 0
BITMAP
6C
6C
00
FF
FF
C0
C0
C0
FE
FE
C0
C0
C0
FF
FF
ENDCHAR
STARTCHAR Igrave
ENCODING 204
SWIDTH 602 0
DWIDTH 10 0
BBX 6 15 2 0
BITMAP
60
30
00
FC
FC
30
30
30
30
30
30
30
30
FC
FC
ENDCHAR
STARTCHAR Iacute
ENCODING 205
SWIDTH 602 0
DWIDTH 10 0
BBX 6 15 2 0
BITMAP
18
30
00
FC
FC
30
30
30
30
30
30
30
30
FC
FC
ENDCHAR
STARTCHAR Icircumflex
ENCODING 206
SWIDTH 602 0
DWIDTH 10 0
BBX 6 15 2 0
BITMAP
78
CC
00
FC
FC
30
30
30
30
30
30
30
30
FC
FC
ENDCHAR
STARTCHAR Idieresis
ENCODING 207
SWIDTH 602 0
DWIDTH 10 0
BBX 6 15 2 0
BITMAP
CC
CC
00
FC
FC
30
30
30
30
30
30
30
30
FC
FC
ENDCHAR
STARTCHAR Eth
ENCODING 208
SWIDTH 602 0
DWIDTH 10 0
BBX 9 12 0 0
BITMAP
7C00
7F00
6300
6180
6180
F980
F980
6180
6180
6300
7F00
7C00
ENDCHAR
STARTCHAR Ntilde
ENCODING 209
SWIDTH 602 0
DWIDTH 10 0
BBX 8 15 1 0
BITMAP
34
2C
00
E3
E3
E3
F3
D3
DB
DB
CB
CF
C7
C7
C7
ENDCHAR
STARTCHAR Ograve
ENCODING 210
SWIDTH 602 0
DWIDTH 10 0
BBX 8 15 1 0
BITMAP
30
18
00
3C
7E
66
C3
C3
C3
C3
C3
C3
66
7E
3C
ENDCHAR
STARTCHAR Oacute
ENCODING 211
SWIDTH 602 0
DWIDTH 10 0
BBX 8 15 1 0
BITMAP
0C
18
00
3C
7E
66
C3
C3
C3
C3
C3
C3
66
7E
3C
ENDCHAR
STARTCHAR Ocircumflex
ENCODING 212
SWIDTH 602 0
DWIDTH 10 0
BBX 8 15 1 0
BITMAP
3C
66
00
3C
7E
66
C3
C3
C3
C3
C3
C3
66
7E
3C
ENDCHAR
STARTCHAR Otilde
ENCODING 213
SWIDTH 602 0
DWIDTH 10 0
BBX 8 15 1 0
BITMAP
34
2C
00
3C
7E
66
C3
C3
C3
C3
C3
C3
66
7E
3C
ENDCHAR
STARTCHAR Odieresis
ENCODING 214
SWIDTH 602 0
DWIDTH 10 0
BBX 8 15 1 0
BITMAP
66
66
00
3C
7E
66
C3
C3
C3
C3
C3
C3
66
7E
3C
ENDCHAR
STARTCHAR multiply
ENCODING 215
SWIDTH 602 0
DWIDTH 10 0
BBX 8 8 1 1
BITMAP
42
E7
7E
3C
3C
7E
E7
42
ENDCHAR
STARTCHAR Oslash
ENCODING 216
SWIDTH 602 0
DWIDTH 10 0
BBX 10 12 0 0
BITMAP
1EC0
3F80
3380
6380
6780
6D80
7D80
7980
7180
7300
7F00
DE00
ENDCHAR
STARTCHAR Ugrave
ENCODING 217
SWIDTH 602 0
DWIDTH 10 0
BBX 8 15 1 0
BITMAP
30
18
00
C3
C3
C3
C3
C3
C3
C3
C3
C3
E7
7E
3C
ENDCHAR
STARTCHAR Uacute
ENCODING 218
SWIDTH 602 0
DWIDTH 10 0
BBX 8 15 1 0
BITMAP
0C
18
00
C3
C3
C3
C3
C3
C3
C3
C3
C3
E7
7E
3C
ENDCHAR
STARTCHAR Ucircumflex
ENCODING 219
SWIDTH 602 0
DWIDTH 10 0
BBX 8 15 1 0
BITMAP
3C
66
00
C3
C3
C3
C3
C3
C3
C3
C3
C3
E7
7E
3C
ENDCHAR
STARTCHAR Udieresis
ENCODING 220
SWIDTH 602 0
DWIDTH 10 0
BBX 8 15 1 0
BITMAP
66
66
00
C3
C3
C3
C3
C3
C3
C3
C3
C3
E7
7E
3C
ENDCHAR
STARTCHAR Yacute
ENCODING 221
SWIDTH 602 0
DWIDTH 10 0
BBX 10 15 0 0
BITMAP
0600
0C00
0000
E1C0
6180
7380
3300
3F00
1E00
0C00
0C00
0C00
0C00
0C00
0C00
ENDCHAR
STARTCHAR Thorn
ENCODING 222
SWIDTH 602 0
DWIDTH 10 0
BBX 8 12 1 0
BITMAP
C0
C0
FC
FE
C3
C3
C3
FF
FC
C0
C0
C0
ENDCHAR
STARTCHAR germandbls
ENCODING 223
SWIDTH 602 0
DWIDTH 10 0
BBX 8 12 1 0
BITMAP
7C
FE
C6
CE
D8
D8
DC
CE
C7
C3
DF
DE
ENDCHAR
STARTCHAR agrave
ENCODING 224
SWIDTH 602 0
DWIDTH 10 0
BBX 8 13 1 0
BITMAP
60
30
18
00
3E
7F
43
1F
7F
E3
C7
FF
7B
ENDCHAR
STARTCHAR aacute
ENCODING 225
SWIDTH 602 0
DWIDTH 10 0
BBX 8 13 1 0
BITMAP
06
0C
18
00
3E
7F
43
1F
7F
E3
C7
FF
7B
ENDCHAR
STARTCHAR acircumflex
ENCODING 226
SWIDTH 602 0
DWIDTH 10 0
BBX 8 13 1 0
BITMAP
18
3C
66
00
3E
7F
43
1F
7F
E3
C7
FF
7B
ENDCHAR
STARTCHAR atilde
ENCODING 227
SWIDTH 602 0
DWIDTH 10 0
BBX 8 12 1 0
BITMAP
74
5C
00
3E
7F
43
1F
7F
E3
C7
FF
7B
ENDCHAR
STARTCHAR adieresis
ENCODING 228
SWIDTH 602 0
DWIDTH 10 0
BBX 8 12 1 0
BITMAP
6C
6C
00
3E
7F
43
1F
7F
E3
C7
FF
7B
ENDCHAR
STARTCHAR aring
ENCODING 229
SWIDTH 602 0
DWIDTH 10 0
BBX 8 14 1 0
BITMAP
18
24
24
18
00
3E
7F
43
1F
7F
E3
C7
FF
7B
ENDCHAR
STARTCHAR ae
ENCODING 230
SWIDTH 602 0
DWIDTH 10 0
BBX 9 9 0 0
BITMAP
3700
7F80
4D80
7F80
FF80
CC00
CC00
FF80
7380
ENDCHAR
STARTCHAR ccedilla
ENCODING 231
SWIDTH 602 0
DWIDTH 10 0
BBX 8 12 1 -3
BITMAP
3E
7F
E1
C0
C0
C0
E1
7F
3E
08
04
18
ENDCHAR
STARTCHAR egrave
ENCODING 232
SWIDTH 602 0
DWIDTH 10 0
BBX 8 13 1 0
BITMAP
30
10
18
00
3C
7E
C3
FF
FF
C0
E1
7F
3E
ENDCHAR
STARTCHAR eacute
ENCODING 233
SWIDTH 602 0
DWIDTH 10 0
BBX 8 13 1 0
BITMAP
06
0C
08
00
3C
7E
C3
FF
FF
C0
E1
7F
3E
ENDCHAR
STARTCHAR ecircumflex
ENCODING 234
SWIDTH 602 0
DWIDTH 10 0
BBX 8 13 1 0
BITMAP
1C
34
26
00
3C
7E
C3
FF
FF
C0
E1
7F
3E
ENDCHAR
STARTCHAR edieresis
ENCODING 235
SWIDTH 602 0
DWIDTH 10 0
BBX 8 12 1 0
BITMAP
6C
6C
00
3C
7E
C3
FF
FF
C0
E1
7F
3E
ENDCHAR
STARTCHAR igrave
ENCODING 236
SWIDTH 602 0
DWIDTH 10 0
BBX 8 13 1 0
BITMAP
60
30
18
00
78
78
18
18
18
18
18
FF
FF
ENDCHAR
STARTCHAR iacute
ENCODING 237
SWIDTH 602 0
DWIDTH 10 0
BBX 8 13 1 0
BITMAP
06
0C
18
00
78
78
18
18
18
18
18
FF
FF
ENDCHAR
STARTCHAR icircumflex
ENCODING 238
SWIDTH 602 0
DWIDTH 10 0
BBX 8 13 1 0
BITMAP
18
3C
66
00
78
78
18
18
18
18
18
FF
FF
ENDCHAR
STARTCHAR idieresis
ENCODING 239
SWIDTH 602 0
DWIDTH 10 0
BBX 8 12 1 0
BITMAP
6C
6C
00
78
78
18
18
18
18
18
FF
FF
ENDCHAR
STARTCHAR eth
ENCODING 240
SWIDTH 602 0
DWIDTH 10 0
BBX 8 12 1 0
BITMAP
32
1C
6C
0E
3E
7F
E3
C3
C3
E7
7E
3C
ENDCHAR
STARTCHAR ntilde
ENCODING 241
SWIDTH 602 0
DWIDTH 10 0
BBX 8 12 1 0
BITMAP
74
5C
00
DE
FF
E3
C3
C3
C3
C3
C3
C3
ENDCHAR
STARTCHAR ograve
ENCODING 242
SWIDTH 602 0
DWIDTH 10 0
BBX 8 13 1 0
BITMAP
60
30
18
00
3C
7E
E7
C3
C3
C3
E7
7E
3C
ENDCHAR
STARTCHAR oacute
ENCODING 243
SWIDTH 602 0
DWIDTH 10 0
BBX 8 13 1 0
BITMAP
06
0C
18
00
3C
7E
E7
C3
C3
C3
E7
7E
3C
ENDCHAR
STARTCHAR ocircumflex
ENCODING 244
SWIDTH 602 0
DWIDTH 10 0
BBX 8 13 1 0
BITMAP
18
3C
66
00
3C
7E
E7
C3
C3
C3
E7
7E
3C
ENDCHAR
STARTCHAR otilde
ENCODING 245
SWIDTH 602 0
DWIDTH 10 0
BBX 8 12 1 0
BITMAP
34
2C
00
3C
7E
E7
C3
C3
C3
E7
7E
3C
ENDCHAR
STARTCHAR odieresis
ENCODING 246
SWIDTH 602 0
DWIDTH 10 0
BBX 8 12 1 0
BITMAP
66
66
00
3C
7E
E7
C3
C3
C3
E7
7E
3C
ENDCHAR
STARTCHAR divide
ENCODING 247
SWIDTH 602 0
DWIDTH 10 0
BBX 8 8 1 1
BITMAP
18
18
00
FF
FF
00
18
18
ENDCHAR
STARTCHAR oslash
ENCODING 248
SWIDTH 602 0
DWIDTH 10 0
BBX 8 11 1 -1
BITMAP
01
3D
7F
E7
CF
DB
F3
E7
FE
BC
80
ENDCHAR
STARTCHAR ugrave
ENCODING 249
SWIDTH 602 0
DWIDTH 10 0
BBX 8 13 1 0
BITMAP
60
30
18
00
C3
C3
C3
C3
C3
C3
C7
FF
7B
ENDCHAR
STARTCHAR uacute
ENCODING 250
SWIDTH 602 0
DWIDTH 10 0
BBX 8 13 1 0
BITMAP
06
0C
18
00
C3
C3
C3
C3
C3
C3
C7
FF
7B
ENDCHAR
STARTCHAR ucircumflex
ENCODING 251
SWIDTH 602 0
DWIDTH 10 0
BBX 8 13 1 0
BITMAP
18
3C
66
00
C3
C3
C3
C3
C3
C3
C7
FF
7B
ENDCHAR
STARTCHAR udieresis
ENCODING 252
SWIDTH 602 0
DWIDTH 10 0
BBX 8 12 1 0
BITMAP
66
66
00
C3
C3
C3
C3
C3
C3
C7
FF
7B
ENDCHAR
STARTCHAR yacute
ENCODING 253
SWIDTH 602 0
DWIDTH 10 0
BBX 8 16 1 -3
BITMAP
06
0C
18
00
E7
67
66
76
3E
3C
1C
1C
18
18
70
70
ENDCHAR
STARTCHAR thorn
ENCODING 254
SWIDTH 602 0
DWIDTH 10 0
BBX 8 15 1 -3
BITMAP
C0
C0
C0
DC
FE
E7
C3
C3
C3
E7
FE
DC
C0
C0
C0
ENDCHAR
STARTCHAR ydieresis
ENCODING 255
SWIDTH 602 0
DWIDTH 10 0
BBX 8 15 1 -3
BITMAP
66
66
00
E7
67
66
76
3E
3C
1C
1C
18
18
70
70
ENDCHAR
STARTCHAR Amacron
ENCODING 256
SWIDTH 602 0
DWIDTH 10 0
BBX 8 15 1 0
BITMAP
3C
00
00
18
3C
3C
3C
3C
66
66
7E
7E
66
E7
C3
ENDCHAR
STARTCHAR amacron
ENCODING 257
SWIDTH 602 0
DWIDTH 10 0
BBX 8 12 1 0
BITMAP
7C
00
00
3E
7F
43
1F
7F
E3
C7
FF
7B
ENDCHAR
STARTCHAR Abreve
ENCODING 258
SWIDTH 602 0
DWIDTH 10 0
BBX 8 15 1 0
BITMAP
44
38
00
18
3C
3C
3C
3C
66
66
7E
7E
66
E7
C3
ENDCHAR
STARTCHAR abreve
ENCODING 259
SWIDTH 602 0
DWIDTH 10 0
BBX 8 13 1 0
BITMAP
44
38
00
00
3E
7F
43
1F
7F
E3
C7
FF
7B
ENDCHAR
STARTCHAR Aogonek
ENCODING 260
SWIDTH 602 0
DWIDTH 10 0
BBX 8 15 1 -3
BITMAP
18
3C
3C
3C
3C
66
66
7E
7E
66
E7
C3
04
04
07
ENDCHAR
STARTCHAR aogonek
ENCODING 261
SWIDTH 602 0
DWIDTH 10 0
BBX 8 12 1 -3
BITMAP
3E
7F
43
1F
7F
E3
C7
FF
7B
04
08
0E
ENDCHAR
STARTCHAR Cacute
ENCODING 262
SWIDTH 602 0
DWIDTH 10 0
BBX 8 15 1 0
BITMAP
06
0C
00
1E
7F
61
C0
C0
C0
C0
C0
C0
61
7F
1E
ENDCHAR
STARTCHAR cacute
ENCODING 263
SWIDTH 602 0
DWIDTH 10 0
BBX 8 13 1 0
BITMAP
06
04
0C
00
3E
7F
E1
C0
C0
C0
E1
7F
3E
ENDCHAR
STARTCHAR Ccircumflex
ENCODING 264
SWIDTH 602 0
DWIDTH 10 0
BBX 8 15 1 0
BITMAP
0E
13
00
1E
7F
61
C0
C0
C0
C0
C0
C0
61
7F
1E
ENDCHAR
STARTCHAR ccircumflex
ENCODING 265
SWIDTH 602 0
DWIDTH 10 0
BBX 8 13 1 0
BITMAP
0C
1E
32
00
3E
7F
E1
C0
C0
C0
E1
7F
3E
ENDCHAR
STARTCHAR Cdotaccent
ENCODING 266
SWIDTH 602 0
DWIDTH 10 0
BBX 8 15 1 0
BITMAP
0C
0C
00
1E
7F
61
C0
C0
C0
C0
C0
C0
61
7F
1E
ENDCHAR
STARTCHAR cdotaccent
ENCODING 267
SWIDTH 602 0
DWIDTH 10 0
BBX 8 12 1 0
BITMAP
0C
0C
00
3E
7F
E1
C0
C0
C0
E1
7F
3E
ENDCHAR
STARTCHAR Ccaron
ENCODING 268
SWIDTH 602 0
DWIDTH 10 0
BBX 8 15 1 0
BITMAP
13
1E
00
1E
7F
61
C0
C0
C0
C0
C0
C0
61
7F
1E
ENDCHAR
STARTCHAR ccaron
ENCODING 269
SWIDTH 602 0
DWIDTH 10 0
BBX 8 13 1 0
BITMAP
32
1E
0C
00
3E
7F
E1
C0
C0
C0
E1
7F
3E
ENDCHAR
STARTCHAR Dcaron
ENCODING 270
SWIDTH 602 0
DWIDTH 10 0
BBX 8 15 1 0
BITMAP
64
3C
00
F8
FE
C6
C3
C3
C3
C3
C3
C3
C6
FE
F8
ENDCHAR
STARTCHAR dcaron
ENCODING 271
SWIDTH 602 0
DWIDTH 10 0
BBX 12 12 1 0
BITMAP
0370
0360
0360
3B00
7F00
E700
C300
C300
C300
E700
7F00
3B00
ENDCHAR
STARTCHAR Dcroat
ENCODING 272
SWIDTH 602 0
DWIDTH 10 0
BBX 9 12 0 0
BITMAP
7C00
7F00
6300
6180
6180
F980
F980
6180
6180
6300
7F00
7C00
ENDCHAR
STARTCHAR dcroat
ENCODING 273
SWIDTH 602 0
DWIDTH 10 0
BBX 9 12 1 0
BITMAP
0300
0F80
0300
3B00
7F00
E700
C300
C300
C300
E700
7F00
3B00
ENDCHAR
STARTCHAR Emacron
ENCODING 274
SWIDTH 602 0
DWIDTH 10 0
BBX 8 15 1 0
BITMAP
7C
00
00
FF
FF
C0
C0
C0
FE
FE
C0
C0
C0
FF
FF
ENDCHAR
STARTCHAR emacron
ENCODING 275
SWIDTH 602 0
DWIDTH 10 0
BBX 8 12 1 0
BITMAP
7C
00
00
3C
7E
C3
FF
FF
C0
E1
7F
3E
ENDCHAR
STARTCHAR Ebreve
ENCODING 276
SWIDTH 602 0
DWIDTH 10 0
BBX 8 15 1 0
BITMAP
64
38
00
FF
FF
C0
C0
C0
FE
FE
C0
C0
C0
FF
FF
ENDCHAR
STARTCHAR ebreve
ENCODING 277
SWIDTH 602 0
DWIDTH 10 0
BBX 8 13 1 0
BITMAP
64
3C
00
00
3C
7E
C3
FF
FF
C0
E1
7F
3E
ENDCHAR
STARTCHAR Edotaccent
ENCODING 278
SWIDTH 602 0
DWIDTH 10 0
BBX 8 15 1 0
BITMAP
18
18
00
FF
FF
C0
C0
C0
FE
FE
C0
C0
C0
FF
FF
ENDCHAR
STARTCHAR edotaccent
ENCODING 279
SWIDTH 602 0
DWIDTH 10 0
BBX 8 12 1 0
BITMAP
18
18
00
3C
7E
C3
FF
FF
C0
E1
7F
3E
ENDCHAR
STARTCHAR Eogonek
ENCODING 280
SWIDTH 602 0
DWIDTH 10 0
BBX 8 15 1 -3
BITMAP
FF
FF
C0
C0
C0
FE
FE
C0
C0
C0
FF
FF
08
08
0E
ENDCHAR
STARTCHAR eogonek
ENCODING 281
SWIDTH 602 0
DWIDTH 10 0
BBX 8 12 1 -3
BITMAP
3C
7E
C3
FF
FF
C0
E1
7F
3E
08
08
0E
ENDCHAR
STARTCHAR Ecaron
ENCODING 282
SWIDTH 602 0
DWIDTH 10 0
BBX 8 15 1 0
BITMAP
26
1C
00
FF
FF
C0
C0
C0
FE
FE
C0
C0
C0
FF
FF
ENDCHAR
STARTCHAR ecaron
ENCODING 283
SWIDTH 602 0
DWIDTH 10 0
BBX 8 13 1 0
BITMAP
66
3C
18
00
3C
7E
C3
FF
FF
C0
E1
7F
3E
ENDCHAR
STARTCHAR Gcircumflex
ENCODING 284
SWIDTH 602 0
DWIDTH 10 0
BBX 8 15 1 0
BITMAP
1E
33
00
1E
7F
61
C0
C0
C0
CF
CF
C3
63
7F
1E
ENDCHAR
STARTCHAR gcircumflex
ENCODING 285
SWIDTH 602 0
DWIDTH 10 0
BBX 8 16 1 -3
BITMAP
18
3C
66
00
3B
7F
E7
C3
C3
C3
E7
7F
3B
43
7F
3E
ENDCHAR
STARTCHAR Gbreve
ENCODING 286
SWIDTH 602 0
DWIDTH 10 0
BBX 8 15 1 0
BITMAP
64
3C
00
1E
7F
61
C0
C0
C0
CF
CF
C3
63
7F
1E
ENDCHAR
STARTCHAR gbreve
ENCODING 287
SWIDTH 602 0
DWIDTH 10 0
BBX 8 16 1 -3
BITMAP
44
38
00
00
3B
7F
E7
C3
C3
C3
E7
7F
3B
43
7F
3E
ENDCHAR
STARTCHAR Gdotaccent
ENCODING 288
SWIDTH 602 0
DWIDTH 10 0
BBX 8 15 1 0
BITMAP
18
18
00
1E
7F
61
C0
C0
C0
CF
CF
C3
63
7F
1E
ENDCHAR
STARTCHAR gdotaccent
ENCODING 289
SWIDTH 602 0
DWIDTH 10 0
BBX 8 15 1 -3
BITMAP
18
18
00
3B
7F
E7
C3
C3
C3
E7
7F
3B
43
7F
3E
ENDCHAR
STARTCHAR Gcommaaccent
ENCODING 290
SWIDTH 602 0
DWIDTH 10 0
BBX 8 16 1 -4
BITMAP
1E
7F
61
C0
C0
C0
CF
CF
C3
63
7F
1E
00
00
0C
18
ENDCHAR
STARTCHAR gcommaaccent
ENCODING 291
SWIDTH 602 0
DWIDTH 10 0
BBX 8 15 1 -3
BITMAP
0C
1C
00
3B
7F
E7
C3
C3
C3
E7
7F
3B
43
7F
3E
ENDCHAR
STARTCHAR Hcircumflex
ENCODING 292
SWIDTH 602 0
DWIDTH 10 0
BBX 8 15 1 0
BITMAP
3C
66
00
C3
C3
C3
C3
C3
FF
FF
C3
C3
C3
C3
C3
ENDCHAR
STARTCHAR hcircumflex
ENCODING 293
SWIDTH 602 0
DWIDTH 10 0
BBX 10 15 -1 0
BITMAP
7800
CC00
0000
3000
3000
3000
3780
3FC0
38C0
30C0
30C0
30C0
30C0
30C0
30C0
ENDCHAR
STARTCHAR Hbar
ENCODING 294
SWIDTH 602 0
DWIDTH 10 0
BBX 10 12 0 0
BITMAP
6180
6180
6180
FFC0
6180
7F80
7F80
6180
6180
6180
6180
6180
ENDCHAR
STARTCHAR hbar
ENCODING 295
SWIDTH 602 0
DWIDTH 10 0
BBX 9 12 0 0
BITMAP
6000
F800
6000
6F00
7F80
7180
6180
6180
6180
6180
6180
6180
ENDCHAR
STARTCHAR Itilde
ENCODING 296
SWIDTH 602 0
DWIDTH 10 0
BBX 6 15 2 0
BITMAP
68
58
00
FC
FC
30
30
30
30
30
30
30
30
FC
FC
ENDCHAR
STARTCHAR itilde
ENCODING 297
SWIDTH 602 0
DWIDTH 10 0
BBX 8 12 1 0
BITMAP
74
5C
00
78
78
18
18
18
18
18
FF
FF
ENDCHAR
STARTCHAR Imacron
ENCODING 298
SWIDTH 602 0
DWIDTH 10 0
BBX 6 15 2 0
BITMAP
78
00
00
FC
FC
30
30
30
30
30
30
30
30
FC
FC
ENDCHAR
STARTCHAR imacron
ENCODING 299
SWIDTH 602 0
DWIDTH 10 0
BBX 8 12 1 0
BITMAP
7C
00
00
78
78
18
18
18
18
18
FF
FF
ENDCHAR
STARTCHAR Ibreve
ENCODING 300
SWIDTH 602 0
DWIDTH 10 0
BBX 6 15 2 0
BITMAP
88
70
00
FC
FC
30
30
30
30
30
30
30
30
FC
FC
ENDCHAR
STARTCHAR ibreve
ENCODING 301
SWIDTH 602 0
DWIDTH 10 0
BBX 8 13 1 0
BITMAP
44
38
00
00
78
78
18
18
18
18
18
FF
FF
ENDCHAR
STARTCHAR Iogonek
ENCODING 302
SWIDTH 602 0
DWIDTH 10 0
BBX 6 15 2 -3
BITMAP
FC
FC
30
30
30
30
30
30
30
30
FC
FC
20
20
38
ENDCHAR
STARTCHAR iogonek
ENCODING 303
SWIDTH 602 0
DWIDTH 10 0
BBX 8 16 1 -3
BITMAP
18
18
18
00
78
78
18
18
18
18
18
FF
FF
10
10
1C
ENDCHAR
STARTCHAR Idotaccent
ENCODING 304
SWIDTH 602 0
DWIDTH 10 0
BBX 6 15 2 0
BITMAP
30
30
00
FC
FC
30
30
30
30
30
30
30
30
FC
FC
ENDCHAR
STARTCHAR dotlessi
ENCODING 305
SWIDTH 602 0
DWIDTH 10 0
BBX 8 9 1 0
BITMAP
78
78
18
18
18
18
18
FF
FF
ENDCHAR
STARTCHAR IJ
ENCODING 306
SWIDTH 602 0
DWIDTH 10 0
BBX 10 12 0 0
BITMAP
E3C0
E3C0
40C0
40C0
40C0
40C0
40C0
40C0
40C0
44C0
E7C0
E380
ENDCHAR
STARTCHAR ij
ENCODING 307
SWIDTH 602 0
DWIDTH 10 0
BBX 10 16 0 -3
BITMAP
30C0
30C0
30C0
0000
F7C0
F7C0
30C0
30C0
30C0
30C0
30C0
FCC0
FCC0
00C0
0FC0
0F80
ENDCHAR
STARTCHAR Jcircumflex
ENCODING 308
SWIDTH 602 0
DWIDTH 10 0
BBX 8 15 1 0
BITMAP
0E
11
00
1F
1F
03
03
03
03
03
03
03
83
FF
7C
ENDCHAR
STARTCHAR jcircumflex
ENCODING 309
SWIDTH 602 0
DWIDTH 10 0
BBX 7 16 1 -3
BITMAP
18
3C
66
00
78
78
18
18
18
18
18
18
18
18
F8
F0
ENDCHAR
STARTCHAR Kcommaaccent
ENCODING 310
SWIDTH 602 0
DWIDTH 10 0
BBX 8 16 1 -4
BITMAP
C7
CE
CC
D8
F8
F8
F8
CC
CE
C6
C7
C3
00
00
1C
18
ENDCHAR
STARTCHAR kcommaaccent
ENCODING 311
SWIDTH 602 0
DWIDTH 10 0
BBX 8 16 1 -4
BITMAP
C0
C0
C0
CE
DC
D8
F0
F8
DC
CC
C6
C7
00
00
0C
18
ENDCHAR
STARTCHAR kgreenlandic
ENCODING 312
SWIDTH 602 0
DWIDTH 10 0
BBX 8 9 1 0
BITMAP
CE
DC
D8
F0
F8
DC
CC
C6
C7
ENDCHAR
STARTCHAR Lacute
ENCODING 313
SWIDTH 602 0
DWIDTH 10 0
BBX 8 15 1 0
BITMAP
0C
18
00
C0
C0
C0
C0
C0
C0
C0
C0
C0
C0
FF
FF
ENDCHAR
STARTCHAR lacute
ENCODING 314
SWIDTH 602 0
DWIDTH 10 0
BBX 7 15 1 0
BITMAP
0C
18
00
F0
F0
30
30
30
30
30
30
30
30
3E
1E
ENDCHAR
STARTCHAR Lcommaaccent
ENCODING 315
SWIDTH 602 0
DWIDTH 10 0
BBX 8 16 1 -4
BITMAP
C0
C0
C0
C0
C0
C0
C0
C0
C0
C0
FF
FF
00
00
0C
18
ENDCHAR
STARTCHAR lcommaaccent
ENCODING 316
SWIDTH 602 0
DWIDTH 10 0
BBX 7 16 1 -4
BITMAP
F0
F0
30
30
30
30
30
30
30
30
3E
1E
00
00
18
30
ENDCHAR
STARTCHAR Lcaron
ENCODING 317
SWIDTH 602 0
DWIDTH 10 0
BBX 8 12 1 0
BITMAP
C3
C3
C2
C0
C0
C0
C0
C0
C0
C0
FF
FF
ENDCHAR
STARTCHAR lcaron
ENCODING 318
SWIDTH 602 0
DWIDTH 10 0
BBX 9 12 1 0
BITMAP
F380
F300
3300
3000
3000
3000
3000
3000
3000
3000
3E00
1E00
ENDCHAR
STARTCHAR Ldot
ENCODING 319
SWIDTH 602 0
DWIDTH 10 0
BBX 8 12 1 0
BITMAP
C0
C0
C0
C0
C3
C3
C3
C0
C0
C0
FF
FF
ENDCHAR
STARTCHAR ldot
ENCODING 320
SWIDTH 602 0
DWIDTH 10 0
BBX 8 12 1 0
BITMAP
F0
F0
30
30
33
33
33
30
30
30
3E
1E
ENDCHAR
STARTCHAR Lslash
ENCODING 321
SWIDTH 602 0
DWIDTH 10 0
BBX 9 12 0 0
BITMAP
6000
6000
6000
6C00
7C00
7000
E000
E000
6000
6000
7F80
7F80
ENDCHAR
STARTCHAR lslash
ENCODING 322
SWIDTH 602 0
DWIDTH 10 0
BBX 8 12 0 0
BITMAP
78
78
18
1B
1E
18
78
D8
18
18
1F
0F
ENDCHAR
STARTCHAR Nacute
ENCODING 323
SWIDTH 602 0
DWIDTH 10 0
BBX 8 15 1 0
BITMAP
0E
08
00
E3
E3
E3
F3
D3
DB
DB
CB
CF
C7
C7
C7
ENDCHAR
STARTCHAR nacute
ENCODING 324
SWIDTH 602 0
DWIDTH 10 0
BBX 8 13 1 0
BITMAP
06
0C
18
00
DE
FF
E3
C3
C3
C3
C3
C3
C3
ENDCHAR
STARTCHAR Ncommaaccent
ENCODING 325
SWIDTH 602 0
DWIDTH 10 0
BBX 8 16 1 -4
BITMAP
E3
E3
E3
F3
D3
DB
DB
CB
CF
C7
C7
C7
00
00
18
10
ENDCHAR
STARTCHAR ncommaaccent
ENCODING 326
SWIDTH 602 0
DWIDTH 10 0
BBX 8 13 1 -4
BITMAP
DE
FF
E3
C3
C3
C3
C3
C3
C3
00
00
18
10
ENDCHAR
STARTCHAR Ncaron
ENCODING 327
SWIDTH 602 0
DWIDTH 10 0
BBX 8 15 1 0
BITMAP
26
1C
00
E3
E3
E3
F3
D3
DB
DB
CB
CF
C7
C7
C7
ENDCHAR
STARTCHAR ncaron
ENCODING 328
SWIDTH 602 0
DWIDTH 10 0
BBX 8 13 1 0
BITMAP
26
34
1C
00
DE
FF
E3
C3
C3
C3
C3
C3
C3
ENDCHAR
STARTCHAR napostrophe
ENCODING 329
SWIDTH 602 0
DWIDTH 10 0
BBX 11 12 -1 0
BITMAP
6000
6000
6000
DBC0
DFE0
1C60
1860
1860
1860
1860
1860
1860
ENDCHAR
STARTCHAR Eng
ENCODING 330
SWIDTH 602 0
DWIDTH 10 0
BBX 8 15 1 -3
BITMAP
DE
FE
E3
C3
C3
C3
C3
C3
C3
C3
C3
C3
03
0F
0E
ENDCHAR
STARTCHAR eng
ENCODING 331
SWIDTH 602 0
DWIDTH 10 0
BBX 8 12 1 -3
BITMAP
DE
FF
E3
C3
C3
C3
C3
C3
C3
03
0F
0E
ENDCHAR
STARTCHAR Omacron
ENCODING 332
SWIDTH 602 0
DWIDTH 10 0
BBX 8 15 1 0
BITMAP
3C
00
00
3C
7E
66
C3
C3
C3
C3
C3
C3
66
7E
3C
ENDCHAR
STARTCHAR omacron
ENCODING 333
SWIDTH 602 0
DWIDTH 10 0
BBX 8 12 1 0
BITMAP
3C
00
00
3C
7E
E7
C3
C3
C3
E7
7E
3C
ENDCHAR
STARTCHAR Obreve
ENCODING 334
SWIDTH 602 0
DWIDTH 10 0
BBX 8 15 1 0
BITMAP
44
38
00
3C
7E
66
C3
C3
C3
C3
C3
C3
66
7E
3C
ENDCHAR
STARTCHAR obreve
ENCODING 335
SWIDTH 602 0
DWIDTH 10 0
BBX 8 13 1 0
BITMAP
44
38
00
00
3C
7E
E7
C3
C3
C3
E7
7E
3C
ENDCHAR
STARTCHAR Ohungarumlaut
ENCODING 336
SWIDTH 602 0
DWIDTH 10 0
BBX 8 15 1 0
BITMAP
36
6C
00
3C
7E
66
C3
C3
C3
C3
C3
C3
66
7E
3C
ENDCHAR
STARTCHAR ohungarumlaut
ENCODING 337
SWIDTH 602 0
DWIDTH 10 0
BBX 8 13 1 0
BITMAP
36
24
48
00
3C
7E
E7
C3
C3
C3
E7
7E
3C
ENDCHAR
STARTCHAR OE
ENCODING 338
SWIDTH 602 0
DWIDTH 10 0
BBX 8 12 1 0
BITMAP
3F
7F
CC
CC
CC
CF
CF
CC
CC
CC
7F
3F
ENDCHAR
STARTCHAR oe
ENCODING 339
SWIDTH 602 0
DWIDTH 10 0
BBX 9 9 0 0
BITMAP
7700
FF80
CD80
CF80
CF80
CC00
CC00
FF80
7380
ENDCHAR
STARTCHAR Racute
ENCODING 340
SWIDTH 602 0
DWIDTH 10 0
BBX 9 15 1 0
BITMAP
0C00
1800
0000
FC00
FF00
C300
C300
C300
FE00
FE00
CE00
C700
C300
C300
C380
ENDCHAR
STARTCHAR racute
ENCODING 341
SWIDTH 602 0
DWIDTH 10 0
BBX 7 13 2 0
BITMAP
06
0C
08
00
DE
FE
E0
C0
C0
C0
C0
C0
C0
ENDCHAR
STARTCHAR Rcommaaccent
ENCODING 342
SWIDTH 602 0
DWIDTH 10 0
BBX 9 16 1 -4
BITMAP
FC00
FF00
C300
C300
C300
FE00
FE00
CE00
C700
C300
C300
C380
0000
0000
0C00
1800
ENDCHAR
STARTCHAR rcommaaccent
ENCODING 343
SWIDTH 602 0
DWIDTH 10 0
BBX 7 13 2 -4
BITMAP
DE
FE
E0
C0
C0
C0
C0
C0
C0
00
00
60
C0
ENDCHAR
STARTCHAR Rcaron
ENCODING 344
SWIDTH 602 0
DWIDTH 10 0
BBX 9 15 1 0
BITMAP
6400
3800
0000
FC00
FF00
C300
C300
C300
FE00
FE00
CE00
C700
C300
C300
C380
ENDCHAR
STARTCHAR rcaron
ENCODING 345
SWIDTH 602 0
DWIDTH 10 0
BBX 7 13 2 0
BITMAP
64
3C
18
00
DE
FE
E0
C0
C0
C0
C0
C0
C0
ENDCHAR
STARTCHAR Sacute
ENCODING 346
SWIDTH 602 0
DWIDTH 10 0
BBX 8 15 1 0
BITMAP
0E
08
00
3C
7E
C2
C0
E0
7C
3E
07
03
83
FF
7C
ENDCHAR
STARTCHAR sacute
ENCODING 347
SWIDTH 602 0
DWIDTH 10 0
BBX 8 13 1 0
BITMAP
06
0C
18
00
7E
FF
C1
FC
7E
07
83
FF
7E
ENDCHAR
STARTCHAR Scircumflex
ENCODING 348
SWIDTH 602 0
DWIDTH 10 0
BBX 8 15 1 0
BITMAP
3C
66
00
3C
7E
C2
C0
E0
7C
3E
07
03
83
FF
7C
ENDCHAR
STARTCHAR scircumflex
ENCODING 349
SWIDTH 602 0
DWIDTH 10 0
BBX 8 13 1 0
BITMAP
18
3C
66
00
7E
FF
C1
FC
7E
07
83
FF
7E
ENDCHAR
STARTCHAR Scedilla
ENCODING 350
SWIDTH 602 0
DWIDTH 10 0
BBX 8 15 1 -3
BITMAP
3C
7E
C2
C0
E0
7C
3E
07
03
83
FF
7C
10
08
38
ENDCHAR
STARTCHAR scedilla
ENCODING 351
SWIDTH 602 0
DWIDTH 10 0
BBX 8 12 1 -3
BITMAP
7E
FF
C1
FC
7E
07
83
FF
7E
10
08
38
ENDCHAR
STARTCHAR Scaron
ENCODING 352
SWIDTH 602 0
DWIDTH 10 0
BBX 8 15 1 0
BITMAP
66
3C
00
3C
7E
C2
C0
E0
7C
3E
07
03
83
FF
7C
ENDCHAR
STARTCHAR scaron
ENCODING 353
SWIDTH 602 0
DWIDTH 10 0
BBX 8 13 1 0
BITMAP
66
3C
18
00
7E
FF
C1
FC
7E
07
83
FF
7E
ENDCHAR
STARTCHAR Tcommaaccent
ENCODING 354
SWIDTH 602 0
DWIDTH 10 0
BBX 8 15 1 -3
BITMAP
FF
FF
18
18
18
18
18
18
18
18
18
18
10
08
38
ENDCHAR
STARTCHAR tcommaaccent
ENCODING 355
SWIDTH 602 0
DWIDTH 10 0
BBX 7 14 1 -3
BITMAP
30
30
FE
FE
30
30
30
30
30
3E
1E
04
04
1C
ENDCHAR
STARTCHAR Tcaron
ENCODING 356
SWIDTH 602 0
DWIDTH 10 0
BBX 8 15 1 0
BITMAP
66
3C
00
FF
FF
18
18
18
18
18
18
18
18
18
18
ENDCHAR
STARTCHAR tcaron
ENCODING 357
SWIDTH 602 0
DWIDTH 10 0
BBX 9 13 1 0
BITMAP
0380
0300
3300
3000
FE00
FE00
3000
3000
3000
3000
3000
3E00
1E00
ENDCHAR
STARTCHAR Tbar
ENCODING 358
SWIDTH 602 0
DWIDTH 10 0
BBX 8 12 1 0
BITMAP
FF
FF
18
18
18
18
7E
7E
18
18
18
18
ENDCHAR
STARTCHAR tbar
ENCODING 359
SWIDTH 602 0
DWIDTH 10 0
BBX 7 11 1 0
BITMAP
30
30
FE
FE
30
78
78
30
30
3E
1E
ENDCHAR
STARTCHAR Utilde
ENCODING 360
SWIDTH 602 0
DWIDTH 10 0
BBX 8 15 1 0
BITMAP
34
2C
00
C3
C3
C3
C3
C3
C3
C3
C3
C3
E7
7E
3C
ENDCHAR
STARTCHAR utilde
ENCODING 361
SWIDTH 602 0
DWIDTH 10 0
BBX 8 12 1 0
BITMAP
34
2C
00
C3
C3
C3
C3
C3
C3
C7
FF
7B
ENDCHAR
STARTCHAR Umacron
ENCODING 362
SWIDTH 602 0
DWIDTH 10 0
BBX 8 15 1 0
BITMAP
3C
00
00
C3
C3
C3
C3
C3
C3
C3
C3
C3
E7
7E
3C
ENDCHAR
STARTCHAR umacron
ENCODING 363
SWIDTH 602 0
DWIDTH 10 0
BBX 8 12 1 0
BITMAP
3C
00
00
C3
C3
C3
C3
C3
C3
C7
FF
7B
ENDCHAR
STARTCHAR Ubreve
ENCODING 364
SWIDTH 602 0
DWIDTH 10 0
BBX 8 15 1 0
BITMAP
44
38
00
C3
C3
C3
C3
C3
C3
C3
C3
C3
E7
7E
3C
ENDCHAR
STARTCHAR ubreve
ENCODING 365
SWIDTH 602 0
DWIDTH 10 0
BBX 8 13 1 0
BITMAP
44
38
00
00
C3
C3
C3
C3
C3
C3
C7
FF
7B
ENDCHAR
STARTCHAR Uring
ENCODING 366
SWIDTH 602 0
DWIDTH 10 0
BBX 8 15 1 0
BITMAP
18
24
24
DB
C3
C3
C3
C3
C3
C3
C3
C3
E7
7E
3C
ENDCHAR
STARTCHAR uring
ENCODING 367
SWIDTH 602 0
DWIDTH 10 0
BBX 8 14 1 0
BITMAP
18
24
24
18
00
C3
C3
C3
C3
C3
C3
C7
FF
7B
ENDCHAR
STARTCHAR Uhungarumlaut
ENCODING 368
SWIDTH 602 0
DWIDTH 10 0
BBX 8 15 1 0
BITMAP
36
6C
00
C3
C3
C3
C3
C3
C3
C3
C3
C3
E7
7E
3C
ENDCHAR
STARTCHAR uhungarumlaut
ENCODING 369
SWIDTH 602 0
DWIDTH 10 0
BBX 8 13 1 0
BITMAP
36
24
48
00
C3
C3
C3
C3
C3
C3
C7
FF
7B
ENDCHAR
STARTCHAR Uogonek
ENCODING 370
SWIDTH 602 0
DWIDTH 10 0
BBX 8 15 1 -3
BITMAP
C3
C3
C3
C3
C3
C3
C3
C3
C3
E7
7E
3C
20
20
38
ENDCHAR
STARTCHAR uogonek
ENCODING 371
SWIDTH 602 0
DWIDTH 10 0
BBX 8 12 1 -3
BITMAP
C3
C3
C3
C3
C3
C3
C7
FF
7B
04
04
07
ENDCHAR
STARTCHAR Wcircumflex
ENCODING 372
SWIDTH 602 0
DWIDTH 10 0
BBX 10 15 0 0
BITMAP
1E00
3300
0000
C0C0
C0C0
C0C0
CCC0
6D80
6D80
6D80
6D80
7380
7380
7380
7380
ENDCHAR
STARTCHAR wcircumflex
ENCODING 373
SWIDTH 602 0
DWIDTH 10 0
BBX 10 13 0 0
BITMAP
0C00
1E00
3300
0000
C0C0
C0C0
CCC0
4C80
6D80
7F80
7380
3300
3300
ENDCHAR
STARTCHAR Ycircumflex
ENCODING 374
SWIDTH 602 0
DWIDTH 10 0
BBX 10 15 0 0
BITMAP
1E00
3300
0000
E1C0
6180
7380
3300
3F00
1E00
0C00
0C00
0C00
0C00
0C00
0C00
ENDCHAR
STARTCHAR ycircumflex
ENCODING 375
SWIDTH 602 0
DWIDTH 10 0
BBX 8 16 1 -3
BITMAP
18
3C
66
00
E7
67
66
76
3E
3C
1C
1C
18
18
70
70
ENDCHAR
STARTCHAR Ydieresis
ENCODING 376
SWIDTH 602 0
DWIDTH 10 0
BBX 10 15 0 0
BITMAP
3300
3300
0000
E1C0
6180
7380
3300
3F00
1E00
0C00
0C00
0C00
0C00
0C00
0C00
ENDCHAR
STARTCHAR Zacute
ENCODING 377
SWIDTH 602 0
DWIDTH 10 0
BBX 8 15 1 0
BITMAP
0E
08
00
FF
FF
07
0E
0C
1C
38
30
70
E0
FF
FF
ENDCHAR
STARTCHAR zacute
ENCODING 378
SWIDTH 602 0
DWIDTH 10 0
BBX 8 13 1 0
BITMAP
06
0C
18
00
FF
FF
06
0C
18
30
60
FF
FF
ENDCHAR
STARTCHAR Zdotaccent
ENCODING 379
SWIDTH 602 0
DWIDTH 10 0
BBX 8 15 1 0
BITMAP
18
18
00
FF
FF
07
0E
0C
1C
38
30
70
E0
FF
FF
ENDCHAR
STARTCHAR zdotaccent
ENCODING 380
SWIDTH 602 0
DWIDTH 10 0
BBX 8 12 1 0
BITMAP
18
18
00
FF
FF
06
0C
18
30
60
FF
FF
ENDCHAR
STARTCHAR Zcaron
ENCODING 381
SWIDTH 602 0
DWIDTH 10 0
BBX 8 15 1 0
BITMAP
66
3C
00
FF
FF
07
0E
0C
1C
38
30
70
E0
FF
FF
ENDCHAR
STARTCHAR zcaron
ENCODING 382
SWIDTH 602 0
DWIDTH 10 0
BBX 8 13 1 0
BITMAP
66
3C
18
00
FF
FF
06
0C
18
30
60
FF
FF
ENDCHAR
STARTCHAR uni01CD
ENCODING 461
SWIDTH 602 0
DWIDTH 10 0
BBX 8 15 1 0
BITMAP
66
3C
00
18
3C
3C
3C
3C
66
66
7E
7E
66
E7
C3
ENDCHAR
STARTCHAR uni01CE
ENCODING 462
SWIDTH 602 0
DWIDTH 10 0
BBX 8 13 1 0
BITMAP
66
3C
18
00
3E
7F
43
1F
7F
E3
C7
FF
7B
ENDCHAR
STARTCHAR uni01CF
ENCODING 463
SWIDTH 602 0
DWIDTH 10 0
BBX 6 15 2 0
BITMAP
CC
78
00
FC
FC
30
30
30
30
30
30
30
30
FC
FC
ENDCHAR
STARTCHAR uni01D0
ENCODING 464
SWIDTH 602 0
DWIDTH 10 0
BBX 8 13 1 0
BITMAP
66
3C
18
00
78
78
18
18
18
18
18
FF
FF
ENDCHAR
STARTCHAR uni01D1
ENCODING 465
SWIDTH 602 0
DWIDTH 10 0
BBX 8 15 1 0
BITMAP
66
3C
00
3C
7E
66
C3
C3
C3
C3
C3
C3
66
7E
3C
ENDCHAR
STARTCHAR uni01D2
ENCODING 466
SWIDTH 602 0
DWIDTH 10 0
BBX 8 13 1 0
BITMAP
66
3C
18
00
3C
7E
E7
C3
C3
C3
E7
7E
3C
ENDCHAR
STARTCHAR uni01D3
ENCODING 467
SWIDTH 602 0
DWIDTH 10 0
BBX 8 15 1 0
BITMAP
66
3C
00
C3
C3
C3
C3
C3
C3
C3
C3
C3
E7
7E
3C
ENDCHAR
STARTCHAR uni01D4
ENCODING 468
SWIDTH 602 0
DWIDTH 10 0
BBX 8 13 1 0
BITMAP
66
3C
18
00
C3
C3
C3
C3
C3
C3
C7
FF
7B
ENDCHAR
STARTCHAR uni01D5
ENCODING 469
SWIDTH 602 0
DWIDTH 10 0
BBX 8 16 1 0
BITMAP
7C
00
6C
6C
C3
C3
C3
C3
C3
C3
C3
C3
C3
E7
7E
3C
ENDCHAR
STARTCHAR uni01D6
ENCODING 470
SWIDTH 602 0
DWIDTH 10 0
BBX 8 14 1 0
BITMAP
7C
00
66
66
00
C3
C3
C3
C3
C3
C3
C7
FF
7B
ENDCHAR
STARTCHAR uni01D7
ENCODING 471
SWIDTH 602 0
DWIDTH 10 0
BBX 8 16 1 0
BITMAP
0C
18
6C
6C
C3
C3
C3
C3
C3
C3
C3
C3
C3
E7
7E
3C
ENDCHAR
STARTCHAR uni01D8
ENCODING 472
SWIDTH 602 0
DWIDTH 10 0
BBX 8 16 1 0
BITMAP
06
0C
18
00
66
66
00
C3
C3
C3
C3
C3
C3
C7
FF
7B
ENDCHAR
STARTCHAR uni01D9
ENCODING 473
SWIDTH 602 0
DWIDTH 10 0
BBX 8 16 1 0
BITMAP
66
3C
6C
6C
C3
C3
C3
C3
C3
C3
C3
C3
C3
E7
7E
3C
ENDCHAR
STARTCHAR uni01DA
ENCODING 474
SWIDTH 602 0
DWIDTH 10 0
BBX 8 16 1 0
BITMAP
66
3C
18
00
66
66
00
C3
C3
C3
C3
C3
C3
C7
FF
7B
ENDCHAR
STARTCHAR uni01DB
ENCODING 475
SWIDTH 602 0
DWIDTH 10 0
BBX 8 16 1 0
BITMAP
30
18
6C
6C
C3
C3
C3
C3
C3
C3
C3
C3
C3
E7
7E
3C
ENDCHAR
STARTCHAR uni01DC
ENCODING 476
SWIDTH 602 0
DWIDTH 10 0
BBX 8 16 1 0
BITMAP
60
30
18
00
66
66
00
C3
C3
C3
C3
C3
C3
C7
FF
7B
ENDCHAR
STARTCHAR uni01DD
ENCODING 477
SWIDTH 602 0
DWIDTH 10 0
BBX 8 9 1 0
BITMAP
7C
FE
87
03
FF
FF
C3
7E
3C
ENDCHAR
STARTCHAR uni01DE
ENCODING 478
SWIDTH 602 0
DWIDTH 10 0
BBX 8 16 1 0
BITMAP
7C
00
6C
6C
18
3C
3C
3C
3C
66
66
7E
7E
66
E7
C3
ENDCHAR
STARTCHAR uni01DF
ENCODING 479
SWIDTH 602 0
DWIDTH 10 0
BBX 8 14 1 0
BITMAP
7C
00
6C
6C
00
3E
7F
43
1F
7F
E3
C7
FF
7B
ENDCHAR
STARTCHAR uni01E0
ENCODING 480
SWIDTH 602 0
DWIDTH 10 0
BBX 8 16 1 0
BITMAP
7C
00
18
18
18
3C
3C
3C
3C
66
66
7E
7E
66
E7
C3
ENDCHAR
STARTCHAR uni01E1
ENCODING 481
SWIDTH 602 0
DWIDTH 10 0
BBX 8 14 1 0
BITMAP
7C
00
18
18
00
3E
7F
43
1F
7F
E3
C7
FF
7B
ENDCHAR
STARTCHAR uni01E2
ENCODING 482
SWIDTH 602 0
DWIDTH 10 0
BBX 9 15 0 0
BITMAP
1F00
0000
0000
1F80
1F80
3600
3600
3600
2780
6780
7E00
7E00
6600
C780
C780
ENDCHAR
STARTCHAR uni01E3
ENCODING 483
SWIDTH 602 0
DWIDTH 10 0
BBX 9 12 0 0
BITMAP
3E00
0000
0000
3700
7F80
4D80
7F80
FF80
CC00
CC00
FF80
7380
ENDCHAR
STARTCHAR Gcaron
ENCODING 486
SWIDTH 602 0
DWIDTH 10 0
BBX 8 15 1 0
BITMAP
33
1E
00
1E
7F
61
C0
C0
C0
CF
CF
C3
63
7F
1E
ENDCHAR
STARTCHAR gcaron
ENCODING 487
SWIDTH 602 0
DWIDTH 10 0
BBX 8 16 1 -3
BITMAP
66
3C
18
00
3B
7F
E7
C3
C3
C3
E7
7F
3B
43
7F
3E
ENDCHAR
STARTCHAR uni01E8
ENCODING 488
SWIDTH 602 0
DWIDTH 10 0
BBX 8 15 1 0
BITMAP
66
3C
00
C7
CE
CC
D8
F8
F8
F8
CC
CE
C6
C7
C3
ENDCHAR
STARTCHAR uni01E9
ENCODING 489
SWIDTH 602 0
DWIDTH 10 0
BBX 8 15 1 0
BITMAP
66
3C
00
C0
C0
C0
CE
DC
D8
F0
F8
DC
CC
C6
C7
ENDCHAR
STARTCHAR uni01EA
ENCODING 490
SWIDTH 602 0
DWIDTH 10 0
BBX 8 15 1 -3
BITMAP
3C
7E
66
C3
C3
C3
C3
C3
C3
66
7E
3C
20
20
38
ENDCHAR
STARTCHAR uni01EB
ENCODING 491
SWIDTH 602 0
DWIDTH 10 0
BBX 8 12 1 -3
BITMAP
3C
7E
E7
C3
C3
C3
E7
7E
3C
20
20
38
ENDCHAR
STARTCHAR uni01EC
ENCODING 492
SWIDTH 602 0
DWIDTH 10 0
BBX 8 18 1 -3
BITMAP
7C
00
00
3C
7E
66
C3
C3
C3
C3
C3
C3
66
7E
3C
20
20
38
ENDCHAR
STARTCHAR uni01ED
ENCODING 493
SWIDTH 602 0
DWIDTH 10 0
BBX 8 15 1 -3
BITMAP
7C
00
00
3C
7E
E7
C3
C3
C3
E7
7E
3C
20
20
38
ENDCHAR
STARTCHAR AEacute
ENCODING 508
SWIDTH 602 0
DWIDTH 10 0
BBX 9 15 0 0
BITMAP
0180
0300
0000
1F80
1F80
3600
3600
3600
2780
6780
7E00
7E00
6600
C780
C780
ENDCHAR
STARTCHAR aeacute
ENCODING 509
SWIDTH 602 0
DWIDTH 10 0
BBX 9 13 0 0
BITMAP
0300
0600
0C00
0000
3700
7F80
4D80
7F80
FF80
CC00
CC00
FF80
7380
ENDCHAR
STARTCHAR Oslashacute
ENCODING 510
SWIDTH 602 0
DWIDTH 10 0
BBX 10 15 0 0
BITMAP
0600
0C00
0000
1EC0
3F80
3380
6380
6780
6D80
7D80
7980
7180
7300
7F00
DE00
ENDCHAR
STARTCHAR oslashacute
ENCODING 511
SWIDTH 602 0
DWIDTH 10 0
BBX 8 14 1 -1
BITMAP
06
0C
18
01
3D
7F
E7
CF
DB
F3
E7
FE
BC
80
ENDCHAR
STARTCHAR uni0200
ENCODING 512
SWIDTH 602 0
DWIDTH 10 0
BBX 8 15 1 0
BITMAP
D8
6C
00
18
3C
3C
3C
3C
66
66
7E
7E
66
E7
C3
ENDCHAR
STARTCHAR uni0201
ENCODING 513
SWIDTH 602 0
DWIDTH 10 0
BBX 8 13 1 0
BITMAP
D8
68
24
00
3E
7F
43
1F
7F
E3
C7
FF
7B
ENDCHAR
STARTCHAR uni0202
ENCODING 514
SWIDTH 602 0
DWIDTH 10 0
BBX 8 15 1 0
BITMAP
38
64
00
18
3C
3C
3C
3C
66
66
7E
7E
66
E7
C3
ENDCHAR
STARTCHAR uni0203
ENCODING 515
SWIDTH 602 0
DWIDTH 10 0
BBX 8 13 1 0
BITMAP
10
3C
44
00
3E
7F
43
1F
7F
E3
C7
FF
7B
ENDCHAR
STARTCHAR uni0204
ENCODING 516
SWIDTH 602 0
DWIDTH 10 0
BBX 8 15 1 0
BITMAP
D8
6C
00
FF
FF
C0
C0
C0
FE
FE
C0
C0
C0
FF
FF
ENDCHAR
STARTCHAR uni0205
ENCODING 517
SWIDTH 602 0
DWIDTH 10 0
BBX 8 13 1 0
BITMAP
48
6C
34
00
3C
7E
C3
FF
FF
C0
E1
7F
3E
ENDCHAR
STARTCHAR uni0206
ENCODING 518
SWIDTH 602 0
DWIDTH 10 0
BBX 8 15 1 0
BITMAP
38
64
00
FF
FF
C0
C0
C0
FE
FE
C0
C0
C0
FF
FF
ENDCHAR
STARTCHAR uni0207
ENCODING 519
SWIDTH 602 0
DWIDTH 10 0
BBX 8 13 1 0
BITMAP
18
3C
22
00
3C
7E
C3
FF
FF
C0
E1
7F
3E
ENDCHAR
STARTCHAR uni0208
ENCODING 520
SWIDTH 602 0
DWIDTH 10 0
BBX 7 15 1 0
BITMAP
D8
6C
00
7E
7E
18
18
18
18
18
18
18
18
7E
7E
ENDCHAR
STARTCHAR uni0209
ENCODING 521
SWIDTH 602 0
DWIDTH 10 0
BBX 8 13 1 0
BITMAP
D8
68
24
00
78
78
18
18
18
18
18
FF
FF
ENDCHAR
STARTCHAR uni020A
ENCODING 522
SWIDTH 602 0
DWIDTH 10 0
BBX 6 15 2 0
BITMAP
70
C8
00
FC
FC
30
30
30
30
30
30
30
30
FC
FC
ENDCHAR
STARTCHAR uni020B
ENCODING 523
SWIDTH 602 0
DWIDTH 10 0
BBX 8 13 1 0
BITMAP
10
3C
44
00
78
78
18
18
18
18
18
FF
FF
ENDCHAR
STARTCHAR uni020C
ENCODING 524
SWIDTH 602 0
DWIDTH 10 0
BBX 8 15 1 0
BITMAP
D8
6C
00
3C
7E
66
C3
C3
C3
C3
C3
C3
66
7E
3C
ENDCHAR
STARTCHAR uni020D
ENCODING 525
SWIDTH 602 0
DWIDTH 10 0
BBX 8 13 1 0
BITMAP
D8
68
24
00
3C
7E
E7
C3
C3
C3
E7
7E
3C
ENDCHAR
STARTCHAR uni020E
ENCODING 526
SWIDTH 602 0
DWIDTH 10 0
BBX 8 15 1 0
BITMAP
38
64
00
3C
7E
66
C3
C3
C3
C3
C3
C3
66
7E
3C
ENDCHAR
STARTCHAR uni020F
ENCODING 527
SWIDTH 602 0
DWIDTH 10 0
BBX 8 13 1 0
BITMAP
10
3C
44
00
3C
7E
E7
C3
C3
C3
E7
7E
3C
ENDCHAR
STARTCHAR uni0210
ENCODING 528
SWIDTH 602 0
DWIDTH 10 0
BBX 9 15 1 0
BITMAP
D800
6C00
0000
FC00
FF00
C300
C300
C300
FE00
FE00
CE00
C700
C300
C300
C380
ENDCHAR
STARTCHAR uni0211
ENCODING 529
SWIDTH 602 0
DWIDTH 10 0
BBX 7 13 2 0
BITMAP
D8
48
2C
00
DE
FE
E0
C0
C0
C0
C0
C0
C0
ENDCHAR
STARTCHAR uni0212
ENCODING 530
SWIDTH 602 0
DWIDTH 10 0
BBX 9 15 1 0
BITMAP
3800
4C00
0000
FC00
FF00
C300
C300
C300
FE00
FE00
CE00
C700
C300
C300
C380
ENDCHAR
STARTCHAR uni0213
ENCODING 531
SWIDTH 602 0
DWIDTH 10 0
BBX 7 13 2 0
BITMAP
10
7C
44
00
DE
FE
E0
C0
C0
C0
C0
C0
C0
ENDCHAR
STARTCHAR uni0214
ENCODING 532
SWIDTH 602 0
DWIDTH 10 0
BBX 8 15 1 0
BITMAP
D8
6C
00
C3
C3
C3
C3
C3
C3
C3
C3
C3
E7
7E
3C
ENDCHAR
STARTCHAR uni0215
ENCODING 533
SWIDTH 602 0
DWIDTH 10 0
BBX 8 13 1 0
BITMAP
D8
68
24
00
C3
C3
C3
C3
C3
C3
C7
FF
7B
ENDCHAR
STARTCHAR uni0216
ENCODING 534
SWIDTH 602 0
DWIDTH 10 0
BBX 8 15 1 0
BITMAP
38
64
00
C3
C3
C3
C3
C3
C3
C3
C3
C3
E7
7E
3C
ENDCHAR
STARTCHAR uni0217
ENCODING 535
SWIDTH 602 0
DWIDTH 10 0
BBX 8 13 1 0
BITMAP
10
3C
44
00
C3
C3
C3
C3
C3
C3
C7
FF
7B
ENDCHAR
STARTCHAR Scommaaccent
ENCODING 536
SWIDTH 602 0
DWIDTH 10 0
BBX 8 16 1 -4
BITMAP
3C
7E
C2
C0
E0
7C
3E
07
03
83
FF
7C
00
00
18
30
ENDCHAR
STARTCHAR scommaaccent
ENCODING 537
SWIDTH 602 0
DWIDTH 10 0
BBX 8 13 1 -4
BITMAP
7E
FF
C1
FC
7E
07
83
FF
7E
00
00
18
30
ENDCHAR
STARTCHAR uni021A
ENCODING 538
SWIDTH 602 0
DWIDTH 10 0
BBX 8 16 1 -4
BITMAP
FF
FF
18
18
18
18
18
18
18
18
18
18
00
00
18
30
ENDCHAR
STARTCHAR uni021B
ENCODING 539
SWIDTH 602 0
DWIDTH 10 0
BBX 7 15 1 -4
BITMAP
30
30
FE
FE
30
30
30
30
30
3E
1E
00
00
18
18
ENDCHAR
STARTCHAR uni0224
ENCODING 548
SWIDTH 602 0
DWIDTH 10 0
BBX 8 15 1 -3
BITMAP
FF
FF
07
0E
0C
1C
38
30
70
E0
FF
FF
03
07
0E
ENDCHAR
STARTCHAR uni0225
ENCODING 549
SWIDTH 602 0
DWIDTH 10 0
BBX 7 12 1 -3
BITMAP
FE
FE
0E
0C
18
30
70
FE
FE
06
0E
1E
ENDCHAR
STARTCHAR uni0226
ENCODING 550
SWIDTH 602 0
DWIDTH 10 0
BBX 8 15 1 0
BITMAP
18
18
00
18
3C
3C
3C
3C
66
66
7E
7E
66
E7
C3
ENDCHAR
STARTCHAR uni0227
ENCODING 551
SWIDTH 602 0
DWIDTH 10 0
BBX 8 12 1 0
BITMAP
18
18
00
3E
7F
43
1F
7F
E3
C7
FF
7B
ENDCHAR
STARTCHAR uni0228
ENCODING 552
SWIDTH 602 0
DWIDTH 10 0
BBX 8 15 1 -3
BITMAP
FF
FF
C0
C0
C0
FE
FE
C0
C0
C0
FF
FF
08
08
38
ENDCHAR
STARTCHAR uni0229
ENCODING 553
SWIDTH 602 0
DWIDTH 10 0
BBX 8 12 1 -3
BITMAP
3C
7E
C3
FF
FF
C0
E1
7F
3E
08
08
38
ENDCHAR
STARTCHAR uni022A
ENCODING 554
SWIDTH 602 0
DWIDTH 10 0
BBX 8 16 1 0
BITMAP
7C
00
6C
6C
3C
7E
66
C3
C3
C3
C3
C3
C3
66
7E
3C
ENDCHAR
STARTCHAR uni022B
ENCODING 555
SWIDTH 602 0
DWIDTH 10 0
BBX 8 14 1 0
BITMAP
7C
00
66
66
00
3C
7E
E7
C3
C3
C3
E7
7E
3C
ENDCHAR
STARTCHAR uni022C
ENCODING 556
SWIDTH 602 0
DWIDTH 10 0
BBX 8 16 1 0
BITMAP
7C
00
74
5C
3C
7E
66
C3
C3
C3
C3
C3
C3
66
7E
3C
ENDCHAR
STARTCHAR uni022D
ENCODING 557
SWIDTH 602 0
DWIDTH 10 0
BBX 8 14 1 0
BITMAP
7C
00
34
2C
00
3C
7E
E7
C3
C3
C3
E7
7E
3C
ENDCHAR
STARTCHAR uni022E
ENCODING 558
SWIDTH 602 0
DWIDTH 10 0
BBX 8 15 1 0
BITMAP
18
18
00
3C
7E
66
C3
C3
C3
C3
C3
C3
66
7E
3C
ENDCHAR
STARTCHAR uni022F
ENCODING 559
SWIDTH 602 0
DWIDTH 10 0
BBX 8 12 1 0
BITMAP
18
18
00
3C
7E
E7
C3
C3
C3
E7
7E
3C
ENDCHAR
STARTCHAR uni0230
ENCODING 560
SWIDTH 602 0
DWIDTH 10 0
BBX 8 16 1 0
BITMAP
7C
00
18
18
3C
7E
66
C3
C3
C3
C3
C3
C3
66
7E
3C
ENDCHAR
STARTCHAR uni0231
ENCODING 561
SWIDTH 602 0
DWIDTH 10 0
BBX 8 14 1 0
BITMAP
7C
00
18
18
00
3C
7E
E7
C3
C3
C3
E7
7E
3C
ENDCHAR
STARTCHAR uni0232
ENCODING 562
SWIDTH 602 0
DWIDTH 10 0
BBX 10 15 0 0
BITMAP
3E00
0000
0000
E1C0
6180
7380
3300
3F00
1E00
0C00
0C00
0C00
0C00
0C00
0C00
ENDCHAR
STARTCHAR uni0233
ENCODING 563
SWIDTH 602 0
DWIDTH 10 0
BBX 8 15 1 -3
BITMAP
7C
00
00
E7
67
66
76
3E
3C
1C
1C
18
18
70
70
ENDCHAR
ENDFONT
